# xmcd CD database file
#
# Track frame offsets:
#	150
#	31175
#	64070
#	102171
#	123470
#	164525
#	189744
#	212250
#	229603
#
# Disc length: 3244 seconds
#
# Revision: 0
# Processed by: cddbd v1.5.2PL0 Copyright (c) Steve Scherf et al.
# Submitted via: jetAudio 7
#
DISCID=720caa09
DTITLE=徐惟聆  - 黄土夢
DYEAR=1900
DGENRE=장르 없음
TTITLE0=漁舟唱晩
TTITLE1=彩云追月
TTITLE2=二泉映月
TTITLE3=草原上
TTITLE4=春江花月夜
TTITLE5=妝臺秋思
TTITLE6=可愛的馬
TTITLE7=旱天雷
TTITLE8=春節序曲
EXTD=
EXTT0=
EXTT1=
EXTT2=
EXTT3=
EXTT4=
EXTT5=
EXTT6=
EXTT7=
EXTT8=
PLAYORDER=
